<svg width="257.748535" height="22.399994" viewBox="0 0 257.749 22.4" fill="none" xmlns="http://www.w3.org/2000/svg" xmlns:xlink="http://www.w3.org/1999/xlink">
	<desc>
			Created with Pixso.
	</desc>
	<defs/>
	<path id="Match Tracker" d="M30.2 -1.15e-5L24.03 -1.15e-5L14.78 11.64L9.66 -1.15e-5L3.96 -1.15e-5L0 22.4L6.4 22.4L8.38 11.2L11.96 18.91L15.52 18.91L21.82 11.16L19.84 22.4L26.24 22.4L30.2 -1.15e-5ZM109.68 11.39C110.42 7.29 108.75 5.24 104.65 5.24L103.63 5.24C102.18 5.24 101.08 5.34 100.33 5.53Q99.21 5.82 97.8 6.87L99.02 -1.15e-5L92.52 -1.15e-5L88.56 22.4L95.05 22.4L96.91 11.87L97.74 11.26Q98.73 10.56 100.3 10.56L101.55 10.56C102.21 10.56 102.65 10.68 102.86 10.94C103.1 11.2 103.15 11.65 103.02 12.32L101.26 22.4L107.76 22.4L109.68 11.39ZM143.35 6.11L144.44 -1.15e-5L123.06 -1.15e-5L121.97 6.11L129.21 6.11L126.33 22.4L133.24 22.4L136.12 6.11L143.35 6.11ZM213.59 13.88L222.55 5.24L214.07 5.24L207.03 13.02L209.33 -1.15e-5L202.81 -1.15e-5L198.84 22.4L205.37 22.4L206.77 14.43L211.8 22.4L219.73 22.4L213.59 13.88ZM60.69 15.8L61.68 10.3L67.44 10.3L68.34 5.24L62.58 5.24L63.25 1.4L58.03 1.4L56.08 5.24L53.01 5.24L52.11 10.3L55.18 10.3L53.97 17.15C53.33 20.65 54.77 22.4 58.29 22.4L65.3 22.4L66.22 17.24L61.94 17.24Q61.1 17.24 60.82 16.92C60.65 16.71 60.6 16.34 60.69 15.8ZM50.17 11.32C50.9 7.27 49.23 5.24 45.18 5.24L37.63 5.24Q35 5.24 33.66 6.33Q32.35 7.42 31.93 10.04L31.71 11.42L37.98 11.42L38.04 10.97C38.13 10.44 38.28 10.08 38.49 9.88C38.73 9.69 39.11 9.59 39.64 9.59L42.2 9.59C42.86 9.59 43.3 9.72 43.52 9.98C43.73 10.24 43.78 10.69 43.68 11.36L43.48 12.41L34.65 12.41C33.33 12.41 32.3 12.72 31.58 13.34C30.85 13.96 30.36 14.94 30.11 16.28L29.79 18.08C29.51 19.4 29.7 20.45 30.36 21.24C31.02 22.01 32.02 22.4 33.34 22.4L36.67 22.4Q38.88 22.4 40 22.08C40.76 21.86 41.64 21.39 42.62 20.67L42.78 22.4L48.22 22.4L50.17 11.32ZM69.11 20.91Q70.38 22.4 73.38 22.4L80.33 22.4C82.37 22.4 83.88 22 84.84 21.21C85.8 20.4 86.46 18.96 86.82 16.89L87.17 14.84L80.93 14.84L80.81 15.58C80.7 16.24 80.51 16.69 80.23 16.92C79.97 17.14 79.52 17.24 78.85 17.24L76.45 17.24C75.79 17.24 75.34 17.12 75.11 16.86C74.9 16.6 74.84 16.14 74.95 15.48L75.56 12.06Q75.72 11.07 76.1 10.75C76.38 10.51 76.85 10.4 77.51 10.4L79.91 10.4Q80.9 10.4 81.22 10.78C81.44 11.04 81.5 11.49 81.41 12.16L81.35 12.64L87.59 12.64L87.78 11.39Q88.29 8.24 86.95 6.7Q85.68 5.24 82.73 5.24L75.78 5.24C73.73 5.24 72.22 5.65 71.24 6.46Q69.8 7.67 69.29 10.75L68.33 16.25Q67.79 19.37 69.11 20.91ZM157.84 5.24L156.46 5.24C154.86 5.24 153.66 5.38 152.85 5.66C152.03 5.91 151.01 6.53 149.77 7.51L149.55 5.24L144.91 5.24L141.87 22.4L148.37 22.4L150.09 12.64L150.92 12.03Q151.85 11.32 153.49 11.32L156.72 11.32L157.84 5.24ZM176.18 6.72Q174.93 5.24 171.93 5.24L164.38 5.24C162.63 5.24 161.31 5.61 160.41 6.33Q159.1 7.42 158.68 10.04L158.46 11.42L164.73 11.42L164.79 10.97C164.88 10.44 165.03 10.08 165.24 9.88C165.48 9.69 165.86 9.59 166.39 9.59L168.95 9.59C169.62 9.59 170.05 9.72 170.27 9.98C170.48 10.24 170.53 10.69 170.43 11.36L170.23 12.41L161.4 12.41C160.08 12.41 159.06 12.72 158.33 13.34C157.6 13.96 157.11 14.94 156.86 16.28L156.54 18.08Q156.19 19.72 156.82 20.81Q156.94 21.04 157.11 21.24C157.78 22.01 158.77 22.4 160.09 22.4L163.42 22.4C164.89 22.4 166 22.29 166.75 22.08C167.51 21.86 168.39 21.39 169.37 20.67L169.53 22.4L174.97 22.4L176.92 11.32Q177.47 8.24 176.18 6.72ZM179.42 20.91Q180.69 22.4 183.7 22.4L190.64 22.4Q193.71 22.4 195.15 21.21C196.11 20.4 196.77 18.96 197.14 16.89L197.49 14.84L191.25 14.84L191.12 15.58Q190.96 16.57 190.54 16.92Q190.16 17.24 189.17 17.24L186.77 17.24Q185.78 17.24 185.42 16.86C185.21 16.6 185.16 16.14 185.26 15.48L185.87 12.06Q186.03 11.07 186.42 10.75Q186.83 10.4 187.82 10.4L190.22 10.4Q191.22 10.4 191.54 10.78C191.75 11.04 191.81 11.49 191.73 12.16L191.66 12.64L197.9 12.64L198.1 11.39Q198.6 8.24 197.26 6.7Q195.99 5.24 193.04 5.24L186.1 5.24C184.05 5.24 182.53 5.65 181.55 6.46C180.59 7.27 179.94 8.7 179.6 10.75L178.64 16.25Q178.1 19.37 179.42 20.91ZM240.29 6.72Q239.07 5.24 236.05 5.24L228.5 5.24C226.46 5.24 224.93 5.66 223.93 6.49C222.95 7.32 222.28 8.76 221.94 10.81L220.98 16.32Q220.45 19.41 221.75 20.93Q223 22.4 225.98 22.4L234.29 22.4C236.02 22.4 237.31 22.03 238.17 21.31C239.02 20.58 239.61 19.33 239.93 17.56L240.25 15.84L234.01 15.84L233.94 16.19C233.84 16.72 233.68 17.08 233.46 17.28C233.25 17.47 232.88 17.56 232.34 17.56L229.02 17.56C228.35 17.56 227.92 17.44 227.7 17.18C227.51 16.92 227.47 16.46 227.57 15.8L227.77 14.75L240.44 14.75L241.02 11.29C241.36 9.24 241.12 7.73 240.31 6.75Q240.3 6.74 240.29 6.72ZM257.74 5.24L256.37 5.24C254.77 5.24 253.56 5.38 252.75 5.66C251.94 5.91 250.92 6.53 249.68 7.51L249.46 5.24L244.82 5.24L241.78 22.4L248.27 22.4L250 12.64L250.83 12.03Q251.76 11.32 253.39 11.32L256.62 11.32L257.74 5.24ZM228.34 11.48L228.41 11.04Q228.57 10.08 228.98 9.72C229.26 9.49 229.72 9.37 230.36 9.37L233.4 9.37Q234.39 9.37 234.68 9.75C234.89 9.99 234.95 10.44 234.84 11.1L234.77 11.48L228.34 11.48ZM41.76 17.79C41.12 18.24 40.38 18.46 39.55 18.46L37.5 18.46Q36.76 18.46 36.54 18.2C36.39 18.01 36.35 17.68 36.41 17.21L36.51 16.73C36.59 16.26 36.72 15.95 36.89 15.8C37.08 15.63 37.41 15.55 37.88 15.55L42.94 15.55L42.81 16.25L42.65 17.15L41.76 17.79ZM168.51 17.79C167.87 18.24 167.13 18.46 166.3 18.46L164.25 18.46C163.76 18.46 163.44 18.37 163.29 18.2C163.14 18.01 163.1 17.68 163.16 17.21L163.26 16.73C163.34 16.26 163.47 15.95 163.64 15.8C163.83 15.63 164.16 15.55 164.63 15.55L169.69 15.55L169.56 16.25L169.4 17.15L168.51 17.79Z" fill="#FFFFFF" fill-opacity="1.000000" fill-rule="evenodd"/>
</svg>
